# xmcd
#
# Track frame offsets:
#	150
#	15450
#	29275
#	41287
#	53737
#	69962
#	89225
#	104400
#	121812
#	137937
#	160062
#	172650
#	188062
#	204087
#	222300
#	237525
#	253575
#	265587
#	286062
#	300737
#
# Disc length: 4179 seconds
#
# Revision: 0
# Processed by: cddbd v1.5.2PL0 Copyright (c) Steve Scherf et al.
# Submitted via: audiograbber 1.83.01
#
DISCID=0b105114
DTITLE=Axel Zwingenberger and The Friends Of Boogie Woogie - Axel Zwingenberger &
DTITLE=The Friends Of Boogie Woogie Vol.1 - Sippie Wallace
DYEAR=1992
DGENRE=Blues
TTITLE0=Shake It To A Jelly
TTITLE1=T.B. Blues
TTITLE2=How Long Blues
TTITLE3=Bedroom Blues
TTITLE4=Underworld Blues
TTITLE5=Arkansas Blues [piano solo]
TTITLE6=Dago Hill
TTITLE7=Nobody Knows
TTITLE8=Ann Arbor Boogie [piano solo]
TTITLE9=Suitcase Blues
TTITLE10=Fan It and Cool It
TTITLE11=My Man's In Trouble
TTITLE12=Black Gal
TTITLE13=Nervous Blues
TTITLE14=Shorty George
TTITLE15=You Really Don't Know
TTITLE16=Black Snake Blues
TTITLE17=Rocks and Mountains
TTITLE18=You Really Don't Know [2nd version]
TTITLE19=Electric Light
EXTD=
EXTT0=
EXTT1=
EXTT2=
EXTT3=
EXTT4=
EXTT5=
EXTT6=
EXTT7=
EXTT8=
EXTT9=
EXTT10=
EXTT11=
EXTT12=
EXTT13=
EXTT14=
EXTT15=
EXTT16=
EXTT17=
EXTT18=
EXTT19=
PLAYORDER=
